<mxfile host="app.diagrams.net" modified="2024-01-18T10:35:53.257Z" agent="Mozilla/5.0 (Windows NT 10.0; Win64; x64) AppleWebKit/537.36 (KHTML, like Gecko) Chrome/120.0.0.0 Safari/537.36" etag="RVTTZLBGSm_QEgLkymQJ" version="22.1.21" type="github">
  <diagram name="Page-1" id="gslRI3hXKU1BmSQOaN08">
    <mxGraphModel dx="1434" dy="746" grid="1" gridSize="10" guides="1" tooltips="1" connect="1" arrows="1" fold="1" page="1" pageScale="1" pageWidth="827" pageHeight="1169" math="0" shadow="0">
      <root>
        <mxCell id="0" />
        <mxCell id="1" parent="0" />
        <mxCell id="FurCAsoolSTPAUAoHDES-16" style="edgeStyle=orthogonalEdgeStyle;rounded=0;orthogonalLoop=1;jettySize=auto;html=1;exitX=0.9;exitY=0.5;exitDx=0;exitDy=0;exitPerimeter=0;" edge="1" parent="1" source="FurCAsoolSTPAUAoHDES-1" target="FurCAsoolSTPAUAoHDES-3">
          <mxGeometry relative="1" as="geometry" />
        </mxCell>
        <mxCell id="FurCAsoolSTPAUAoHDES-17" style="edgeStyle=orthogonalEdgeStyle;rounded=0;orthogonalLoop=1;jettySize=auto;html=1;exitX=1;exitY=0.75;exitDx=0;exitDy=0;entryX=0;entryY=0.5;entryDx=0;entryDy=0;" edge="1" parent="1" source="FurCAsoolSTPAUAoHDES-1" target="FurCAsoolSTPAUAoHDES-4">
          <mxGeometry relative="1" as="geometry">
            <Array as="points">
              <mxPoint x="150" y="135" />
              <mxPoint x="150" y="240" />
            </Array>
          </mxGeometry>
        </mxCell>
        <mxCell id="FurCAsoolSTPAUAoHDES-1" value="" style="shape=actor;whiteSpace=wrap;html=1;" vertex="1" parent="1">
          <mxGeometry x="40" y="60" width="80" height="100" as="geometry" />
        </mxCell>
        <mxCell id="FurCAsoolSTPAUAoHDES-9" style="edgeStyle=orthogonalEdgeStyle;rounded=0;orthogonalLoop=1;jettySize=auto;html=1;exitX=1;exitY=0.75;exitDx=0;exitDy=0;entryX=0;entryY=0.5;entryDx=0;entryDy=0;" edge="1" parent="1" source="FurCAsoolSTPAUAoHDES-2" target="FurCAsoolSTPAUAoHDES-5">
          <mxGeometry relative="1" as="geometry" />
        </mxCell>
        <mxCell id="FurCAsoolSTPAUAoHDES-15" style="edgeStyle=orthogonalEdgeStyle;rounded=0;orthogonalLoop=1;jettySize=auto;html=1;exitX=0.9;exitY=0.5;exitDx=0;exitDy=0;exitPerimeter=0;entryX=0;entryY=0.5;entryDx=0;entryDy=0;" edge="1" parent="1" source="FurCAsoolSTPAUAoHDES-2" target="FurCAsoolSTPAUAoHDES-4">
          <mxGeometry relative="1" as="geometry">
            <Array as="points">
              <mxPoint x="150" y="350" />
              <mxPoint x="150" y="240" />
            </Array>
          </mxGeometry>
        </mxCell>
        <mxCell id="FurCAsoolSTPAUAoHDES-2" value="" style="shape=actor;whiteSpace=wrap;html=1;" vertex="1" parent="1">
          <mxGeometry x="40" y="300" width="80" height="100" as="geometry" />
        </mxCell>
        <mxCell id="FurCAsoolSTPAUAoHDES-3" value="&lt;font style=&quot;font-size: 14px;&quot;&gt;Choisir ses trajets&lt;/font&gt;" style="ellipse;whiteSpace=wrap;html=1;" vertex="1" parent="1">
          <mxGeometry x="230" y="90" width="120" height="80" as="geometry" />
        </mxCell>
        <mxCell id="FurCAsoolSTPAUAoHDES-4" value="se connecter" style="ellipse;whiteSpace=wrap;html=1;" vertex="1" parent="1">
          <mxGeometry x="210" y="200" width="120" height="80" as="geometry" />
        </mxCell>
        <mxCell id="FurCAsoolSTPAUAoHDES-5" value="&lt;font style=&quot;font-size: 14px;&quot;&gt;ordonner les wagons&lt;/font&gt;" style="ellipse;whiteSpace=wrap;html=1;" vertex="1" parent="1">
          <mxGeometry x="230" y="310" width="120" height="80" as="geometry" />
        </mxCell>
        <mxCell id="FurCAsoolSTPAUAoHDES-6" value="&lt;font style=&quot;font-size: 14px;&quot;&gt;Conducteur&lt;/font&gt;" style="text;html=1;strokeColor=none;fillColor=none;align=center;verticalAlign=middle;whiteSpace=wrap;rounded=0;" vertex="1" parent="1">
          <mxGeometry x="50" y="160" width="60" height="30" as="geometry" />
        </mxCell>
        <mxCell id="FurCAsoolSTPAUAoHDES-11" value="&lt;font style=&quot;font-size: 14px;&quot;&gt;Organisateur&lt;/font&gt;" style="text;html=1;strokeColor=none;fillColor=none;align=center;verticalAlign=middle;whiteSpace=wrap;rounded=0;" vertex="1" parent="1">
          <mxGeometry x="50" y="400" width="60" height="30" as="geometry" />
        </mxCell>
      </root>
    </mxGraphModel>
  </diagram>
</mxfile>
